<svg xmlns="http://www.w3.org/2000/svg" id="bag" data-name="bag" viewBox="0 0 92.78 110.14"><defs><style>.icon-highlights{fill:Canvas}.stroke-1{fill:CanvasText;stroke:Canvas;stroke-miterlimit:10}</style></defs><g id="bag-icon"><path id="bag_side" d="m1.61 40.57 7.91-5.1s-.01.01 0 0l5.06-4.6c.19-.17.5-.04.5.22V99.5c0 .09-.04.18-.12.24l-13.01 9.79c-.2.15-.48 0-.48-.24V40.82c0-.1.06-.2.15-.26Z" class="stroke-1" data-name="bag side"/><rect id="bag-back" width="78.17" height="69.23" x="14.11" y="30.42" class="stroke-1" rx=".5" ry=".5"/><g id="donut"><g id="donut-2" data-name="donut"><path d="M41.87 32.21c-.82-1.05-1.3-2.28-1.3-3.6 0-3.79 3.89-6.86 8.7-6.86s8.7 3.07 8.7 6.86c0 1.32-.48 2.55-1.3 3.6 1.51-1.38 2.44-3.19 2.44-5.17 0-4.34-4.41-7.86-9.83-7.86s-9.83 3.53-9.83 7.86c0 1.98.92 3.78 2.44 5.17Z"/><path d="M76.36 15.06c.77 3.06.39 6.26-1.15 8.96l-.52.92c.02.08.04.17.07.29 2.4 10.21-.14 17.49-7.13 20.51l-1.31.33c-.07.02-.12.06-.14.13l-.45 1.18c-1.24 3.24-4.22 5.96-7.97 7.26-1.59.55-3.21.83-4.77.83-2.21 0-4.32-.55-6.13-1.62l-1.11-.66a.246.246 0 0 0-.22-.02l-1.29.52c-9.19 1.34-15.56-3.25-17.95-12.94-.02-.07-.03-.14-.05-.19l-.97-.4c-5.34-2.45-8.18-10.38-5.92-16.4-.06-.24-.16-.75-.27-1.41-.91 3.25-1.31 6.71-1.1 10.27 1.03 17.27 15.86 30.44 33.13 29.41C68.38 61 81.55 46.17 80.52 28.9c-.3-5.05-1.79-9.75-4.17-13.84Z"/><g id="white_outlne" data-name="white outlne"><path d="M20.09 21.03c.46-1.39 1.02-2.72 1.65-4-.61 1.14-1.17 2.46-1.65 4ZM74.69 24.94l.52-.92c1.54-2.7 1.92-5.9 1.15-8.96-.32-.78-8.69-13.09-19.62-13.76 2.65.59 4.39.95 6.81 2.22.49.83.85 1.65 1.07 2.46l.09.31 1.67.43c.45.12 1.69.59 2.12.75.75.31 1.47.7 2.07 1.11a30.76 30.76 0 0 1 3.95 4.61c1.58 3.32 1.47 7.16-.3 10.26l-.62 1.09c-.12.22-.09.34.05.94 2.29 9.76.05 16.4-6.39 19.19l-1.22.31c-.42.1-.77.41-.92.82l-.45 1.17c-1.12 2.94-3.85 5.4-7.29 6.6-3.53 1.22-7.16.97-9.96-.7l-1.11-.66a1.386 1.386 0 0 0-1.23-.1l-1.09.46c-3.16.45-5.92.17-8.28-.81-.1-.06-1-.48-1-.48-3.54-1.88-6.03-5.5-7.33-10.81-.14-.56-.18-.75-.47-.87l-1.18-.48c-4.8-2.21-7.41-9.7-5.26-15.13l.07-.17-.05-.18s-.26-1.01-.44-2.53c-.25.82-.49 1.69-.7 2.63-2.27 6.02.57 13.95 5.92 16.4l.97.4c.01.06.03.12.05.19 2.39 9.69 8.76 14.27 17.95 12.94l1.29-.52c.07-.03.15-.02.22.02l1.11.66c1.81 1.08 3.92 1.62 6.13 1.62 1.56 0 3.18-.27 4.77-.83 3.75-1.3 6.73-4.02 7.97-7.26l.45-1.18c.03-.06.08-.11.14-.13l1.31-.33c6.99-3.02 9.52-10.3 7.13-20.51-.03-.12-.05-.22-.07-.29Z" class="icon-highlights"/></g><path d="M66.67 5.63c.34.09.98.32 1.49.51l-3.15-2.29c.25.5.46 1.01.62 1.51l1.04.27Z"/></g><path id="frosting" d="m25.74 39.12 1.18.48c.29.12.34.31.47.87 1.31 5.31 3.8 8.93 7.33 10.81 0 0 .91.42 1 .48 2.36.98 5.12 1.26 8.28.81l1.09-.46a1.386 1.386 0 0 1 1.23.1l1.11.66c2.8 1.67 6.43 1.93 9.96.7 3.44-1.2 6.17-3.66 7.29-6.6l.45-1.17c.16-.41.5-.71.92-.82l1.22-.31c6.44-2.79 8.68-9.43 6.39-19.19-.14-.6-.17-.73-.05-.94l.62-1.09c1.77-3.1 1.88-6.94.3-10.26a31.877 31.877 0 0 0-3.95-4.61c-.6-.41-1.33-.8-2.07-1.11-.43-.17-1.67-.63-2.12-.75l-1.67-.43-.09-.31c-.22-.81-.59-1.64-1.07-2.46C58.61.92 53.04-.28 47.44.05 34.78.8 24.04 9.06 20.06 21.11c.18 1.52.44 2.53.44 2.54l.05.18-.07.17c-2.14 5.43.46 12.91 5.26 15.13Zm23.52-21.06c6.05 0 10.96 4.03 10.96 8.99s-4.92 8.99-10.96 8.99-10.96-4.03-10.96-8.99 4.92-8.99 10.96-8.99Z" style="fill:var(--pink)"/><path id="donuthole" d="M49.26 36.04c6.05 0 10.96-4.03 10.96-8.99s-4.92-8.99-10.96-8.99-10.96 4.03-10.96 8.99 4.92 8.99 10.96 8.99Zm0-16.85c5.42 0 9.83 3.53 9.83 7.86 0 1.98-.93 3.78-2.44 5.17.82-1.05 1.3-2.28 1.3-3.6 0-3.79-3.89-6.86-8.7-6.86s-8.7 3.07-8.7 6.86c0 1.32.48 2.55 1.3 3.6-1.51-1.38-2.44-3.19-2.44-5.17 0-4.34 4.41-7.86 9.83-7.86Z" class="icon-highlights"/></g><path d="M.5 40.42h78.17v69.23H.5z" data-name="front" style="stroke-linejoin:round;fill:CanvasText;stroke:Canvas"/><path d="m78.82 40.57 6.63-3.95s.03-.02.05-.04l6.28-5.71c.19-.17.5-.04.5.22V99.5c0 .09-.04.18-.12.24l-13.01 9.79c-.2.15-.48 0-.48-.24V40.82c0-.1.06-.2.15-.26Z" class="stroke-1" data-name="side"/><path d="m85.47 91.98 6.54 7.32c.21.23.08.48-.26.75l-12.67 9.51c-.34.27-.53-.17-.32-.74l6.08-16.35c.16-.44.48-.68.64-.5Z" style="stroke-linecap:round;stroke-miterlimit:10;fill:CanvasText;stroke:Canvas"/><rect width="1" height="56.1" x="84.65" y="36.6" class="icon-highlights" data-name="side-seam" rx=".5" ry=".5"/><rect width="1" height="5.63" x="9.18" y="35.05" class="icon-highlights" data-name="side-seam" rx=".34" ry=".34"/><rect id="plus" width="45.56" height="9.03" x="17.93" y="70.52" class="icon-highlights" rx="4.51" ry="4.51" transform="rotate(90 40.71 75.03)"/><rect id="minus" width="45.56" height="9.03" x="17.93" y="70.52" class="icon-highlights" rx="4.51" ry="4.51"/></g></svg>