<svg xmlns="http://www.w3.org/2000/svg" style="display: none;">
  <defs>
    <!-- Baseline Widely available logo -->
    <symbol id="baseline-widely-available" viewBox="0 0 540 300">
      <path d="M420 30L390 60L480 150L390 240L330 180L300 210L390 300L540 150L420 30Z" fill="#C4EED0"/>
      <path d="M150 0L30 120L60 150L150 60L210 120L240 90L150 0Z" fill="#C4EED0"/>
      <path d="M390 0L420 30L150 300L0 150L30 120L150 240L390 0Z" fill="#1EA446"/>
    </symbol>
    <!-- Material Design upload icon -->
    <symbol id="upload" viewBox="0 -960 960 960">
      <path d="M440-320v-326L336-542l-56-58 200-200 200 200-56 58-104-104v326h-80ZM240-160q-33 0-56.5-23.5T160-240v-120h80v120h480v-120h80v120q0 33-23.5 56.5T720-160H240Z" />
    </symbol>
    <!-- Material Design download icon -->
    <symbol id="download" viewBox="0 -960 960 960">
      <path d="M480-320 280-520l56-58 104 104v-326h80v326l104-104 56 58-200 200ZM240-160q-33 0-56.5-23.5T160-240v-120h80v120h480v-120h80v120q0 33-23.5 56.5T720-160H240Z"/>
    </symbol>
    <!-- Material Design plus icon -->
    <symbol id="plus" viewBox="0 -960 960 960">
      <path d="M440-440H200v-80h240v-240h80v240h240v80H520v240h-80v-240Z" />
    </symbol>
    <!-- Material Design data_exploration icon -->
    <symbol id="data_exploration" viewBox="0 -960 960 960">
      <path d="M480-80q-83 0-156-31.5T197-197q-54-54-85.5-127T80-480q0-83 31.5-156T197-763q54-54 127-85.5T480-880q83 0 156 31.5T763-763q54 54 85.5 127T880-480v320q0 33-23.5 56.5T800-80H480Zm0-80q134 0 227-93t93-227q0-134-93-227t-227-93q-134 0-227 93t-93 227q0 23 3 45t9 43l148-148 132 111 131-131h-63v-80h200v200h-80v-63L456-320 325-432 207-314q42 69 113.5 111.5T480-160Zm300 20q17 0 28.5-11.5T820-180q0-17-11.5-28.5T780-220q-17 0-28.5 11.5T740-180q0 17 11.5 28.5T780-140ZM455-480Z"/>
    </symbol>
  </defs>
</svg>